<svg xmlns="http://www.w3.org/2000/svg">
    <defs>
    <symbol id="edit" viewBox="0 0 24 24" fill= "none">
        <g id="SVGRepo_bgCarrier" stroke-width="0"/>
        <g id="SVGRepo_tracerCarrier" stroke-linecap="round" stroke-linejoin="round"/>
        <g id="SVGRepo_iconCarrier"> <path d="M21.2799 6.40005L11.7399 15.94C10.7899 16.89 7.96987 17.33 7.33987 16.7C6.70987 16.07 7.13987 13.25 8.08987 12.3L17.6399 2.75002C17.8754 2.49308 18.1605 2.28654 18.4781 2.14284C18.7956 1.99914 19.139 1.92124 19.4875 1.9139C19.8359 1.90657 20.1823 1.96991 20.5056 2.10012C20.8289 2.23033 21.1225 2.42473 21.3686 2.67153C21.6147 2.91833 21.8083 3.21243 21.9376 3.53609C22.0669 3.85976 22.1294 4.20626 22.1211 4.55471C22.1128 4.90316 22.0339 5.24635 21.8894 5.5635C21.7448 5.88065 21.5375 6.16524 21.2799 6.40005V6.40005Z" stroke-width="1.5" stroke-linecap="round" stroke-linejoin="round"/> <path d="M11 4H6C4.93913 4 3.92178 4.42142 3.17163 5.17157C2.42149 5.92172 2 6.93913 2 8V18C2 19.0609 2.42149 20.0783 3.17163 20.8284C3.92178 21.5786 4.93913 22 6 22H17C19.21 22 20 20.2 20 18V13" stroke-width="1.5" stroke-linecap="round" stroke-linejoin="round"/> </g>
    </symbol>
    <symbol id="heart-filled" viewBox="0 0 24 24">
        <g id="SVGRepo_bgCarrier" stroke-width="0"/>
        <g id="SVGRepo_tracerCarrier" stroke-linecap="round" stroke-linejoin="round"/>
        <g id="SVGRepo_iconCarrier"> <path d="M2 9.1371C2 14 6.01943 16.5914 8.96173 18.9109C10 19.7294 11 20.5 12 20.5C13 20.5 14 19.7294 15.0383 18.9109C17.9806 16.5914 22 14 22 9.1371C22 4.27416 16.4998 0.825464 12 5.50063C7.50016 0.825464 2 4.27416 2 9.1371Z"/> </g>
    </symbol>
    <symbol id="heart-outline" viewBox="0 0 24 24" fill="none">
        <g id="SVGRepo_bgCarrier" stroke-width="0"/>
        <g id="SVGRepo_tracerCarrier" stroke-linecap="round" stroke-linejoin="round"/>
        <g id="SVGRepo_iconCarrier"> <path d="M2 9.1371C2 14 6.01943 16.5914 8.96173 18.9109C10 19.7294 11 20.5 12 20.5C13 20.5 14 19.7294 15.0383 18.9109C17.9806 16.5914 22 14 22 9.1371C22 4.27416 16.4998 0.825464 12 5.50063C7.50016 0.825464 2 4.27416 2 9.1371Z"/> </g>
    </symbol>
    <symbol id="add" viewBox="0 0 24 24" fill="none">
        <path d="M15 12L12 12M12 12L9 12M12 12L12 9M12 12L12 15" stroke-width="1.5" stroke-linecap="round"/>
        <path d="M7 3.33782C8.47087 2.48697 10.1786 2 12 2C17.5228 2 22 6.47715 22 12C22 17.5228 17.5228 22 12 22C6.47715 22 2 17.5228 2 12C2 10.1786 2.48697 8.47087 3.33782 7" stroke-width="1.5" stroke-linecap="round"/>
    </symbol>
    <symbol id="check" viewBox="0 0 24 24" fill="none">
        <path d="M8.5 12.5L10.5 14.5L15.5 9.5" stroke-width="1.5" stroke-linecap="round" stroke-linejoin="round"/>
        <path d="M7 3.33782C8.47087 2.48697 10.1786 2 12 2C17.5228 2 22 6.47715 22 12C22 17.5228 17.5228 22 12 22C6.47715 22 2 17.5228 2 12C2 10.1786 2.48697 8.47087 3.33782 7" stroke-width="1.5" stroke-linecap="round"/>
    </symbol>
    <symbol id="refresh" viewBox="0 0 24 24" fill="none">
        <g id="SVGRepo_bgCarrier" stroke-width="0"/>
        <g id="SVGRepo_tracerCarrier" stroke-linecap="round" stroke-linejoin="round"/>
        <g id="SVGRepo_iconCarrier"> <path d="M4.06189 13C4.02104 12.6724 4 12.3387 4 12C4 7.58172 7.58172 4 12 4C14.5006 4 16.7332 5.14727 18.2002 6.94416M19.9381 11C19.979 11.3276 20 11.6613 20 12C20 16.4183 16.4183 20 12 20C9.61061 20 7.46589 18.9525 6 17.2916M9 17H6V17.2916M18.2002 4V6.94416M18.2002 6.94416V6.99993L15.2002 7M6 20V17.2916" stroke="#2da164" stroke-width="2" stroke-linecap="round" stroke-linejoin="round"/> </g>
    </symbol>
    <symbol id="create" viewBox="0 0 21 21" fill="none">
        <g id="SVGRepo_bgCarrier" stroke-width="0"/>
        <g id="SVGRepo_tracerCarrier" stroke-linecap="round" stroke-linejoin="round"/>
        <g id="SVGRepo_iconCarrier"> <g fill-rule="evenodd" stroke-linecap="round" stroke-linejoin="round" transform="translate(3 3)"> <path d="m7 1.5h-4.5c-1.1045695 0-2 .8954305-2 2v9.0003682c0 1.1045695.8954305 2 2 2h10c1.1045695 0 2-.8954305 2-2v-4.5003682"/> <path d="m14.5.46667982c.5549155.5734054.5474396 1.48588056-.0167966 2.05011677l-6.9832034 6.98320341-3 1 1-3 6.9874295-7.04563515c.5136195-.5178979 1.3296676-.55351813 1.8848509-.1045243z"/> <path d="m12.5 2.5.953 1"/> </g> </g>
    </symbol>
    <symbol id="dashboard" viewBox="0 -0.5 25 25" stroke-width="0.00025">
        <g id="SVGRepo_bgCarrier" stroke-width="0"/>
        <g id="SVGRepo_tracerCarrier" stroke-linecap="round" stroke-linejoin="round"/>
        <g id="SVGRepo_iconCarrier"> <path d="M12.5 11.75C12.9142 11.75 13.25 11.4142 13.25 11C13.25 10.5858 12.9142 10.25 12.5 10.25V11.75ZM5.5 10.25C5.08579 10.25 4.75 10.5858 4.75 11C4.75 11.4142 5.08579 11.75 5.5 11.75V10.25ZM12.5 10.25C12.0858 10.25 11.75 10.5858 11.75 11C11.75 11.4142 12.0858 11.75 12.5 11.75V10.25ZM19.5 11.75C19.9142 11.75 20.25 11.4142 20.25 11C20.25 10.5858 19.9142 10.25 19.5 10.25V11.75ZM11.75 11C11.75 11.4142 12.0858 11.75 12.5 11.75C12.9142 11.75 13.25 11.4142 13.25 11H11.75ZM13.25 5C13.25 4.58579 12.9142 4.25 12.5 4.25C12.0858 4.25 11.75 4.58579 11.75 5H13.25ZM6.25 11C6.25 10.5858 5.91421 10.25 5.5 10.25C5.08579 10.25 4.75 10.5858 4.75 11H6.25ZM20.25 11C20.25 10.5858 19.9142 10.25 19.5 10.25C19.0858 10.25 18.75 10.5858 18.75 11H20.25ZM4.75 11C4.75 11.4142 5.08579 11.75 5.5 11.75C5.91421 11.75 6.25 11.4142 6.25 11H4.75ZM12.5 5.75C12.9142 5.75 13.25 5.41421 13.25 5C13.25 4.58579 12.9142 4.25 12.5 4.25V5.75ZM18.75 11C18.75 11.4142 19.0858 11.75 19.5 11.75C19.9142 11.75 20.25 11.4142 20.25 11H18.75ZM12.5 4.25C12.0858 4.25 11.75 4.58579 11.75 5C11.75 5.41421 12.0858 5.75 12.5 5.75V4.25ZM12.5 10.25H5.5V11.75H12.5V10.25ZM12.5 11.75H19.5V10.25H12.5V11.75ZM13.25 11V5H11.75V11H13.25ZM4.75 11V15H6.25V11H4.75ZM4.75 15C4.75 17.6234 6.87665 19.75 9.5 19.75V18.25C7.70507 18.25 6.25 16.7949 6.25 15H4.75ZM9.5 19.75H15.5V18.25H9.5V19.75ZM15.5 19.75C18.1234 19.75 20.25 17.6234 20.25 15H18.75C18.75 16.7949 17.2949 18.25 15.5 18.25V19.75ZM20.25 15V11H18.75V15H20.25ZM6.25 11V9H4.75V11H6.25ZM6.25 9C6.25 7.20507 7.70507 5.75 9.5 5.75V4.25C6.87665 4.25 4.75 6.37665 4.75 9H6.25ZM9.5 5.75H12.5V4.25H9.5V5.75ZM20.25 11V9H18.75V11H20.25ZM20.25 9C20.25 6.37665 18.1234 4.25 15.5 4.25V5.75C17.2949 5.75 18.75 7.20507 18.75 9H20.25ZM15.5 4.25H12.5V5.75H15.5V4.25Z" /> </g>
    </symbol>
    <symbol id="filter" viewBox="0 0 24 24" fill="none">
        <g id="SVGRepo_bgCarrier" stroke-width="0"/>
        <g id="SVGRepo_tracerCarrier" stroke-linecap="round" stroke-linejoin="round"/>
        <g id="SVGRepo_iconCarrier"> <path d="M19 3H5C3.58579 3 2.87868 3 2.43934 3.4122C2 3.8244 2 4.48782 2 5.81466V6.50448C2 7.54232 2 8.06124 2.2596 8.49142C2.5192 8.9216 2.99347 9.18858 3.94202 9.72255L6.85504 11.3624C7.49146 11.7206 7.80967 11.8998 8.03751 12.0976C8.51199 12.5095 8.80408 12.9935 8.93644 13.5872C9 13.8722 9 14.2058 9 14.8729L9 17.5424C9 18.452 9 18.9067 9.25192 19.2613C9.50385 19.6158 9.95128 19.7907 10.8462 20.1406C12.7248 20.875 13.6641 21.2422 14.3321 20.8244C15 20.4066 15 19.4519 15 17.5424V14.8729C15 14.2058 15 13.8722 15.0636 13.5872C15.1959 12.9935 15.488 12.5095 15.9625 12.0976C16.1903 11.8998 16.5085 11.7206 17.145 11.3624L20.058 9.72255C21.0065 9.18858 21.4808 8.9216 21.7404 8.49142C22 8.06124 22 7.54232 22 6.50448V5.81466C22 4.48782 22 3.8244 21.5607 3.4122C21.1213 3 20.4142 3 19 3Z" stroke-width="1.5"/> </g>
    </symbol >
    <symbol id="favorite" viewBox="0 0 24 24" stroke-width="0.00024000000000000003">
        <g id="SVGRepo_bgCarrier" stroke-width="0"/>
        <g id="SVGRepo_tracerCarrier" stroke-linecap="round" stroke-linejoin="round"/>
        <g id="SVGRepo_iconCarrier"> <path fill-rule="evenodd" clip-rule="evenodd" d="M11.993 5.09691C11.0387 4.25883 9.78328 3.75 8.40796 3.75C5.42122 3.75 3 6.1497 3 9.10988C3 10.473 3.50639 11.7242 4.35199 12.67L12 20.25L19.4216 12.8944L19.641 12.6631C20.4866 11.7172 21 10.473 21 9.10988C21 6.1497 18.5788 3.75 15.592 3.75C14.2167 3.75 12.9613 4.25883 12.007 5.09692L12 5.08998L11.993 5.09691ZM12 7.09938L12.0549 7.14755L12.9079 6.30208L12.9968 6.22399C13.6868 5.61806 14.5932 5.25 15.592 5.25C17.763 5.25 19.5 6.99073 19.5 9.10988C19.5 10.0813 19.1385 10.9674 18.5363 11.6481L18.3492 11.8453L12 18.1381L5.44274 11.6391C4.85393 10.9658 4.5 10.0809 4.5 9.10988C4.5 6.99073 6.23699 5.25 8.40796 5.25C9.40675 5.25 10.3132 5.61806 11.0032 6.22398L11.0921 6.30203L11.9452 7.14752L12 7.09938Z"/> </g>
    </symbol>
    <symbol id="settings" viewBox="0 0 24 24">
        <g id="SVGRepo_bgCarrier" stroke-width="0"/>
        <g id="SVGRepo_tracerCarrier" stroke-linecap="round" stroke-linejoin="round"/>
        <g id="SVGRepo_iconCarrier"> <path stroke-width="0.72" fill-rule="evenodd" clip-rule="evenodd" d="M12 8.25C9.92894 8.25 8.25 9.92893 8.25 12C8.25 14.0711 9.92894 15.75 12 15.75C14.0711 15.75 15.75 14.0711 15.75 12C15.75 9.92893 14.0711 8.25 12 8.25ZM9.75 12C9.75 10.7574 10.7574 9.75 12 9.75C13.2426 9.75 14.25 10.7574 14.25 12C14.25 13.2426 13.2426 14.25 12 14.25C10.7574 14.25 9.75 13.2426 9.75 12Z" /> <path stroke-width="0.72" fill-rule="evenodd" clip-rule="evenodd" d="M11.9747 1.25C11.5303 1.24999 11.1592 1.24999 10.8546 1.27077C10.5375 1.29241 10.238 1.33905 9.94761 1.45933C9.27379 1.73844 8.73843 2.27379 8.45932 2.94762C8.31402 3.29842 8.27467 3.66812 8.25964 4.06996C8.24756 4.39299 8.08454 4.66251 7.84395 4.80141C7.60337 4.94031 7.28845 4.94673 7.00266 4.79568C6.64714 4.60777 6.30729 4.45699 5.93083 4.40743C5.20773 4.31223 4.47642 4.50819 3.89779 4.95219C3.64843 5.14353 3.45827 5.3796 3.28099 5.6434C3.11068 5.89681 2.92517 6.21815 2.70294 6.60307L2.67769 6.64681C2.45545 7.03172 2.26993 7.35304 2.13562 7.62723C1.99581 7.91267 1.88644 8.19539 1.84541 8.50701C1.75021 9.23012 1.94617 9.96142 2.39016 10.5401C2.62128 10.8412 2.92173 11.0602 3.26217 11.2741C3.53595 11.4461 3.68788 11.7221 3.68786 12C3.68785 12.2778 3.53592 12.5538 3.26217 12.7258C2.92169 12.9397 2.62121 13.1587 2.39007 13.4599C1.94607 14.0385 1.75012 14.7698 1.84531 15.4929C1.88634 15.8045 1.99571 16.0873 2.13552 16.3727C2.26983 16.6469 2.45535 16.9682 2.67758 17.3531L2.70284 17.3969C2.92507 17.7818 3.11058 18.1031 3.28089 18.3565C3.45817 18.6203 3.64833 18.8564 3.89769 19.0477C4.47632 19.4917 5.20763 19.6877 5.93073 19.5925C6.30717 19.5429 6.647 19.3922 7.0025 19.2043C7.28833 19.0532 7.60329 19.0596 7.8439 19.1986C8.08452 19.3375 8.24756 19.607 8.25964 19.9301C8.27467 20.3319 8.31403 20.7016 8.45932 21.0524C8.73843 21.7262 9.27379 22.2616 9.94761 22.5407C10.238 22.661 10.5375 22.7076 10.8546 22.7292C11.1592 22.75 11.5303 22.75 11.9747 22.75H12.0252C12.4697 22.75 12.8407 22.75 13.1454 22.7292C13.4625 22.7076 13.762 22.661 14.0524 22.5407C14.7262 22.2616 15.2616 21.7262 15.5407 21.0524C15.686 20.7016 15.7253 20.3319 15.7403 19.93C15.7524 19.607 15.9154 19.3375 16.156 19.1985C16.3966 19.0596 16.7116 19.0532 16.9974 19.2042C17.3529 19.3921 17.6927 19.5429 18.0692 19.5924C18.7923 19.6876 19.5236 19.4917 20.1022 19.0477C20.3516 18.8563 20.5417 18.6203 20.719 18.3565C20.8893 18.1031 21.0748 17.7818 21.297 17.3969L21.3223 17.3531C21.5445 16.9682 21.7301 16.6468 21.8644 16.3726C22.0042 16.0872 22.1135 15.8045 22.1546 15.4929C22.2498 14.7697 22.0538 14.0384 21.6098 13.4598C21.3787 13.1586 21.0782 12.9397 20.7378 12.7258C20.464 12.5538 20.3121 12.2778 20.3121 11.9999C20.3121 11.7221 20.464 11.4462 20.7377 11.2742C21.0783 11.0603 21.3788 10.8414 21.6099 10.5401C22.0539 9.96149 22.2499 9.23019 22.1547 8.50708C22.1136 8.19546 22.0043 7.91274 21.8645 7.6273C21.7302 7.35313 21.5447 7.03183 21.3224 6.64695L21.2972 6.60318C21.0749 6.21825 20.8894 5.89688 20.7191 5.64347C20.5418 5.37967 20.3517 5.1436 20.1023 4.95225C19.5237 4.50826 18.7924 4.3123 18.0692 4.4075C17.6928 4.45706 17.353 4.60782 16.9975 4.79572C16.7117 4.94679 16.3967 4.94036 16.1561 4.80144C15.9155 4.66253 15.7524 4.39297 15.7403 4.06991C15.7253 3.66808 15.686 3.2984 15.5407 2.94762C15.2616 2.27379 14.7262 1.73844 14.0524 1.45933C13.762 1.33905 13.4625 1.29241 13.1454 1.27077C12.8407 1.24999 12.4697 1.24999 12.0252 1.25H11.9747ZM10.5216 2.84515C10.5988 2.81319 10.716 2.78372 10.9567 2.76729C11.2042 2.75041 11.5238 2.75 12 2.75C12.4762 2.75 12.7958 2.75041 13.0432 2.76729C13.284 2.78372 13.4012 2.81319 13.4783 2.84515C13.7846 2.97202 14.028 3.21536 14.1548 3.52165C14.1949 3.61826 14.228 3.76887 14.2414 4.12597C14.271 4.91835 14.68 5.68129 15.4061 6.10048C16.1321 6.51968 16.9974 6.4924 17.6984 6.12188C18.0143 5.9549 18.1614 5.90832 18.265 5.89467C18.5937 5.8514 18.9261 5.94047 19.1891 6.14228C19.2554 6.19312 19.3395 6.27989 19.4741 6.48016C19.6125 6.68603 19.7726 6.9626 20.0107 7.375C20.2488 7.78741 20.4083 8.06438 20.5174 8.28713C20.6235 8.50382 20.6566 8.62007 20.6675 8.70287C20.7108 9.03155 20.6217 9.36397 20.4199 9.62698C20.3562 9.70995 20.2424 9.81399 19.9397 10.0041C19.2684 10.426 18.8122 11.1616 18.8121 11.9999C18.8121 12.8383 19.2683 13.574 19.9397 13.9959C20.2423 14.186 20.3561 14.29 20.4198 14.373C20.6216 14.636 20.7107 14.9684 20.6674 15.2971C20.6565 15.3799 20.6234 15.4961 20.5173 15.7128C20.4082 15.9355 20.2487 16.2125 20.0106 16.6249C19.7725 17.0373 19.6124 17.3139 19.474 17.5198C19.3394 17.72 19.2553 17.8068 19.189 17.8576C18.926 18.0595 18.5936 18.1485 18.2649 18.1053C18.1613 18.0916 18.0142 18.045 17.6983 17.8781C16.9973 17.5075 16.132 17.4803 15.4059 17.8995C14.68 18.3187 14.271 19.0816 14.2414 19.874C14.228 20.2311 14.1949 20.3817 14.1548 20.4784C14.028 20.7846 13.7846 21.028 13.4783 21.1549C13.4012 21.1868 13.284 21.2163 13.0432 21.2327C12.7958 21.2496 12.4762 21.25 12 21.25C11.5238 21.25 11.2042 21.2496 10.9567 21.2327C10.716 21.2163 10.5988 21.1868 10.5216 21.1549C10.2154 21.028 9.97201 20.7846 9.84514 20.4784C9.80512 20.3817 9.77195 20.2311 9.75859 19.874C9.72896 19.0817 9.31997 18.3187 8.5939 17.8995C7.86784 17.4803 7.00262 17.5076 6.30158 17.8781C5.98565 18.0451 5.83863 18.0917 5.73495 18.1053C5.40626 18.1486 5.07385 18.0595 4.81084 17.8577C4.74458 17.8069 4.66045 17.7201 4.52586 17.5198C4.38751 17.314 4.22736 17.0374 3.98926 16.625C3.75115 16.2126 3.59171 15.9356 3.4826 15.7129C3.37646 15.4962 3.34338 15.3799 3.33248 15.2971C3.28921 14.9684 3.37828 14.636 3.5801 14.373C3.64376 14.2901 3.75761 14.186 4.0602 13.9959C4.73158 13.5741 5.18782 12.8384 5.18786 12.0001C5.18791 11.1616 4.73165 10.4259 4.06021 10.004C3.75769 9.81389 3.64385 9.70987 3.58019 9.62691C3.37838 9.3639 3.28931 9.03149 3.33258 8.7028C3.34348 8.62001 3.37656 8.50375 3.4827 8.28707C3.59181 8.06431 3.75125 7.78734 3.98935 7.37493C4.22746 6.96253 4.3876 6.68596 4.52596 6.48009C4.66055 6.27983 4.74468 6.19305 4.81093 6.14222C5.07395 5.9404 5.40636 5.85133 5.73504 5.8946C5.83873 5.90825 5.98576 5.95483 6.30173 6.12184C7.00273 6.49235 7.86791 6.51962 8.59394 6.10045C9.31998 5.68128 9.72896 4.91837 9.75859 4.12602C9.77195 3.76889 9.80512 3.61827 9.84514 3.52165C9.97201 3.21536 10.2154 2.97202 10.5216 2.84515Z" /> </g>
        <!-- <g id="SVGRepo_iconCarrier"> <circle cx="12" cy="12" r="3" stroke-width="0.72"/> <path d="M13.7654 2.15224C13.3978 2 12.9319 2 12 2C11.0681 2 10.6022 2 10.2346 2.15224C9.74457 2.35523 9.35522 2.74458 9.15223 3.23463C9.05957 3.45834 9.0233 3.7185 9.00911 4.09799C8.98826 4.65568 8.70226 5.17189 8.21894 5.45093C7.73564 5.72996 7.14559 5.71954 6.65219 5.45876C6.31645 5.2813 6.07301 5.18262 5.83294 5.15102C5.30704 5.08178 4.77518 5.22429 4.35436 5.5472C4.03874 5.78938 3.80577 6.1929 3.33983 6.99993C2.87389 7.80697 2.64092 8.21048 2.58899 8.60491C2.51976 9.1308 2.66227 9.66266 2.98518 10.0835C3.13256 10.2756 3.3397 10.437 3.66119 10.639C4.1338 10.936 4.43789 11.4419 4.43786 12C4.43783 12.5581 4.13375 13.0639 3.66118 13.3608C3.33965 13.5629 3.13248 13.7244 2.98508 13.9165C2.66217 14.3373 2.51966 14.8691 2.5889 15.395C2.64082 15.7894 2.87379 16.193 3.33973 17C3.80568 17.807 4.03865 18.2106 4.35426 18.4527C4.77508 18.7756 5.30694 18.9181 5.83284 18.8489C6.07289 18.8173 6.31632 18.7186 6.65204 18.5412C7.14547 18.2804 7.73556 18.27 8.2189 18.549C8.70224 18.8281 8.98826 19.3443 9.00911 19.9021C9.02331 20.2815 9.05957 20.5417 9.15223 20.7654C9.35522 21.2554 9.74457 21.6448 10.2346 21.8478C10.6022 22 11.0681 22 12 22C12.9319 22 13.3978 22 13.7654 21.8478C14.2554 21.6448 14.6448 21.2554 14.8477 20.7654C14.9404 20.5417 14.9767 20.2815 14.9909 19.902C15.0117 19.3443 15.2977 18.8281 15.781 18.549C16.2643 18.2699 16.8544 18.2804 17.3479 18.5412C17.6836 18.7186 17.927 18.8172 18.167 18.8488C18.6929 18.9181 19.2248 18.7756 19.6456 18.4527C19.9612 18.2105 20.1942 17.807 20.6601 16.9999C21.1261 16.1929 21.3591 15.7894 21.411 15.395C21.4802 14.8691 21.3377 14.3372 21.0148 13.9164C20.8674 13.7243 20.6602 13.5628 20.3387 13.3608C19.8662 13.0639 19.5621 12.558 19.5621 11.9999C19.5621 11.4418 19.8662 10.9361 20.3387 10.6392C20.6603 10.4371 20.8675 10.2757 21.0149 10.0835C21.3378 9.66273 21.4803 9.13087 21.4111 8.60497C21.3592 8.21055 21.1262 7.80703 20.6602 7C20.1943 6.19297 19.9613 5.78945 19.6457 5.54727C19.2249 5.22436 18.693 5.08185 18.1671 5.15109C17.9271 5.18269 17.6837 5.28136 17.3479 5.4588C16.8545 5.71959 16.2644 5.73002 15.7811 5.45096C15.2977 5.17191 15.0117 4.65566 14.9909 4.09794C14.9767 3.71848 14.9404 3.45833 14.8477 3.23463C14.6448 2.74458 14.2554 2.35523 13.7654 2.15224Z" stroke-width="0.72"/> </g> -->
    </symbol>
    <symbol id="logout" viewBox="0 0 24 24">
        <g id="SVGRepo_bgCarrier" stroke-width="0"/>
        <g id="SVGRepo_tracerCarrier" stroke-linecap="round" stroke-linejoin="round"/>
        <g id="SVGRepo_iconCarrier"> <path d="M10 12H20M20 12L17 9M20 12L17 15" stroke="#ffffff" stroke-width="1.5" stroke-linecap="round" stroke-linejoin="round"/> <path d="M4 12C4 7.58172 7.58172 4 12 4M12 20C9.47362 20 7.22075 18.8289 5.75463 17" stroke-width="1.5" stroke-linecap="round"/> </g>
    </symbol>
    <symbol id= "help" viewBox="0 0 16 16">
        <path d="m 8 0 c -4.410156 0 -8 3.589844 -8 8 s 3.589844 8 8 8 s 8 -3.589844 8 -8 s -3.589844 -8 -8 -8 z m 0 2 c 3.332031 0 6 2.667969 6 6 s -2.667969 6 -6 6 s -6 -2.667969 -6 -6 s 2.667969 -6 6 -6 z m 0 1.875 c -0.621094 0 -1.125 0.503906 -1.125 1.125 s 0.503906 1.125 1.125 1.125 s 1.125 -0.503906 1.125 -1.125 s -0.503906 -1.125 -1.125 -1.125 z m -1.523438 3.125 c -0.265624 0.011719 -0.476562 0.230469 -0.476562 0.5 c 0 0.277344 0.222656 0.5 0.5 0.5 h 0.5 v 3 h -0.5 c -0.277344 0 -0.5 0.222656 -0.5 0.5 s 0.222656 0.5 0.5 0.5 h 3 c 0.277344 0 0.5 -0.222656 0.5 -0.5 s -0.222656 -0.5 -0.5 -0.5 h -0.5 v -4 h -2.5 c -0.007812 0 -0.015625 0 -0.023438 0 z m 0 0"/>
    </symbol>
    <symbol id="edit-user" viewBox="0 0 24 24">
        <g id="SVGRepo_bgCarrier" stroke-width="0"/>
            <g id="SVGRepo_tracerCarrier" stroke-linecap="round" stroke-linejoin="round"/>
            <g id="SVGRepo_iconCarrier">
            <path id="primary" d="M13,12a5,5,0,1,1,5-5A5,5,0,0,1,13,12Zm0,9a1,1,0,0,0,1,1h6a2,2,0,0,0,2-2,6,6,0,0,0-6-6H10a6.26,6.26,0,0,0-1.57.21l4,4A2,2,0,0,1,13,19.61Z"/>
            <path id="secondary" d="M5.09,12.29l6.62,6.61a1.05,1.05,0,0,1,.29.71V21a1,1,0,0,1-1,1H9.61a1,1,0,0,1-.71-.29L2.29,15.09a1,1,0,0,1,0-1.4l1.4-1.4A1,1,0,0,1,5.09,12.29Z"/>
         </g>
    </symbol>
    <symbol id="user" viewBox= "0 0 30 30">
        <g id="SVGRepo_bgCarrier" stroke-width="0"/>
        <g id="SVGRepo_tracerCarrier" stroke-linecap="round" stroke-linejoin="round"/>
        <g id="SVGRepo_iconCarrier"> <style type="text/css"> .st0{fill:none;stroke:#ff0000;stroke-width:4;stroke-linecap:round;stroke-linejoin:round;stroke-miterlimit:10;} .st1{fill:none;stroke:#00ff15;stroke-width:4;stroke-linecap:round;stroke-linejoin:round;stroke-miterlimit:10;} .st2{fill:none;stroke:#0051ff;stroke-width:4;stroke-linecap:round;stroke-linejoin:round;stroke-miterlimit:10;} .st3{fill:#ff0000;stroke:#ff0000;stroke-width:2;stroke-linecap:round;stroke-linejoin:round;stroke-miterlimit:10;} .st4{fill:#ff0000;stroke:#ff0000;stroke-width:2;stroke-linecap:round;stroke-linejoin:round;stroke-miterlimit:10;} .st5{fill:#A576FF;stroke:#A576FF;stroke-width:2;stroke-linecap:round;stroke-linejoin:round;stroke-miterlimit:10;} .st6{fill:#F2BB41;stroke:#F2BB41;stroke-width:2;stroke-linecap:round;stroke-linejoin:round;stroke-miterlimit:10;} .st7{fill:#E08838;stroke:#E08838;stroke-width:2;stroke-linecap:round;stroke-linejoin:round;stroke-miterlimit:10;} .st8{fill:#00ff15;stroke:#00ff15;stroke-width:2;stroke-linecap:round;stroke-linejoin:round;stroke-miterlimit:10;} .st9{fill:#5EC11E;stroke:#5EC11E;stroke-width:2;stroke-linecap:round;stroke-linejoin:round;stroke-miterlimit:10;} .st10{fill:#E3FAFF;stroke:#E3FAFF;stroke-width:2;stroke-linecap:round;stroke-linejoin:round;stroke-miterlimit:10;} .st11{fill:#FF5093;stroke:#FF5093;stroke-width:2;stroke-linecap:round;stroke-linejoin:round;stroke-miterlimit:10;} .st12{fill:#B7257F;stroke:#B7257F;stroke-width:2;stroke-linecap:round;stroke-linejoin:round;stroke-miterlimit:10;} .st13{fill:#5189E5;stroke:#5189E5;stroke-width:2;stroke-linecap:round;stroke-linejoin:round;stroke-miterlimit:10;} .st14{fill:#6EBAFF;stroke:#6EBAFF;stroke-width:2;stroke-linecap:round;stroke-linejoin:round;stroke-miterlimit:10;} .st15{fill:#EDD977;stroke:#EDD977;stroke-width:2;stroke-linecap:round;stroke-linejoin:round;stroke-miterlimit:10;} .st16{fill:#8C43FF;stroke:#8C43FF;stroke-width:2;stroke-linecap:round;stroke-linejoin:round;stroke-miterlimit:10;} .st17{fill:#5252BA;stroke:#5252BA;stroke-width:2;stroke-linecap:round;stroke-linejoin:round;stroke-miterlimit:10;} .st18{fill:none;stroke:#E3FAFF;stroke-width:4;stroke-linecap:round;stroke-linejoin:round;stroke-miterlimit:10;} .st19{fill:#354C75;stroke:#354C75;stroke-width:2;stroke-linecap:round;stroke-linejoin:round;stroke-miterlimit:10;} </style> <path class="st4" d="M24,28H6c-1.1,0-2-0.9-2-2v0c0-3.9,3.1-7,7-7h8c3.9,0,7,3.1,7,7v0C26,27.1,25.1,28,24,28z"/> <circle class="st14" cx="15" cy="9" r="6"/> </g>
    </symbol>
        
        <symbol id="utensils" viewBox="-7.91 0 60 60">
            <g id="_38" data-name="38" transform="translate(-172.913 -1205.499)">
                <path id="Path_126" data-name="Path 126" d="M181.948,1218.352l-.024,37.285.032,7.888a1.723,1.723,0,0,1-.175.953,4.131,4.131,0,0,1-4.145.8,1.987,1.987,0,0,1-1.354-1.039l-.04-1.015-.006-14.186-3.323-.014.047-5.13.237-5.523.478-6.962c.675-7.158,1.611-14.368,3.965-20.979.771-1.732,1.435-3.814,3.3-4.776a1.679,1.679,0,0,1,.989-.131Zm-2.579,33.519a1.083,1.083,0,0,0-1.1.346,1.1,1.1,0,0,0-.13,1.122,1.036,1.036,0,0,0,.618.541,1.1,1.1,0,0,0,1.079-.319,1.135,1.135,0,0,0,.139-1.165A1.083,1.083,0,0,0,179.369,1251.871Zm-.674,6.773a1.12,1.12,0,0,0-.651.921,1.067,1.067,0,0,0,.625,1.036,1.035,1.035,0,0,0,1.08-.183,1.148,1.148,0,0,0,.282-1.169A1.061,1.061,0,0,0,178.7,1258.644Z"/>
                <path id="Path_127" data-name="Path 127" d="M198.19,1208.3a6.063,6.063,0,0,1,.943,2.918l-.017,52.04a2.477,2.477,0,0,1-1.75,2.126c-.212.078-.462.053-.682.117a2.867,2.867,0,0,1-1.146-.321,2.476,2.476,0,0,1-1.264-1.845V1249.75h-1.6l-.016-44.224A6.068,6.068,0,0,1,198.19,1208.3Zm-2.11,45.312a.954.954,0,0,0-.245.777,1.016,1.016,0,0,0,.4.566,1.028,1.028,0,0,0,.807,0c.235-.1.321-.346.415-.55a.868.868,0,0,0-.344-.863A.921.921,0,0,0,196.08,1253.61Zm.134,5.54a.813.813,0,0,0-.393.581.907.907,0,0,0,.187.682.826.826,0,0,0,1.358-.171.972.972,0,0,0,0-.77A.837.837,0,0,0,196.214,1259.15Z"/>
                <path id="Path_128" data-name="Path 128" d="M217.082,1240.88a3.62,3.62,0,0,1-1.838,3.32l-.634.275v1.614c.728.226,1.756.558,1.86,1.492l-.029,16.439c-.32.99-1.443,1.291-2.378,1.454a3.935,3.935,0,0,1-3.435-1.039,2.514,2.514,0,0,1-.188-1.179l.027-15.856a2.271,2.271,0,0,1,1.812-1.292l.048-.066v-1.537a3.822,3.822,0,0,1-2.343-2.427l-.13-.906-.02-31.172,7.2-4.5.046,28.132Z"/>
            </g>
        </symbol>
        <symbol id="ingredients" viewBox="0 0 50 50">
            <path d="M29 0C27.90625 0 27 0.90625 27 2L27 5C27 5.976563 27.722656 6.804688 28.65625 6.96875C28.246094 7.632813 27.835938 8.382813 27.4375 9.28125C26.609375 11.148438 25.8125 13.429688 25.1875 15.59375L23.8125 14.8125C23.605469 14.691406 23.363281 14.644531 23.125 14.6875C22.933594 14.730469 22.761719 14.828125 22.625 14.96875L21.28125 16.25C19.492188 14.714844 17.164063 13.78125 14.625 13.78125C9.167969 13.78125 4.675781 18.078125 4.40625 24L2.84375 24C1.285156 24 0 25.285156 0 26.84375L0 30.15625C0 31.714844 1.285156 33 2.84375 33L3 33L3 36C3 36.21875 3.023438 36.191406 3.03125 36.21875C3.039063 36.246094 3.027344 36.261719 3.03125 36.28125C3.042969 36.320313 3.050781 36.355469 3.0625 36.40625C3.089844 36.503906 3.140625 36.652344 3.1875 36.8125C3.28125 37.132813 3.402344 37.566406 3.5625 38.09375C3.878906 39.148438 4.328125 40.554688 4.75 41.9375C5.597656 44.707031 6.4375 47.4375 6.4375 47.4375C6.449219 47.511719 6.472656 47.585938 6.5 47.65625C6.769531 48.140625 7.046875 48.632813 7.4375 49.09375C7.828125 49.554688 8.457031 50 9.21875 50L40.78125 50C41.554688 50 42.269531 49.621094 42.6875 49.125C43.105469 48.628906 43.308594 48.066406 43.53125 47.53125C43.542969 47.5 43.554688 47.46875 43.5625 47.4375C43.5625 47.4375 44.402344 44.707031 45.25 41.9375C45.671875 40.554688 46.121094 39.148438 46.4375 38.09375C46.597656 37.566406 46.71875 37.132813 46.8125 36.8125C46.859375 36.652344 46.910156 36.503906 46.9375 36.40625C46.949219 36.355469 46.957031 36.320313 46.96875 36.28125C46.972656 36.261719 46.960938 36.246094 46.96875 36.21875C46.976563 36.191406 47 36.21875 47 36L47 33L47.15625 33C48.714844 33 50 31.714844 50 30.15625L50 26.84375C50 25.285156 48.714844 24 47.15625 24L44 24L44 21.8125C44 19.558594 42.941406 15.703125 41.65625 12.15625C41.015625 10.382813 40.328125 8.703125 39.625 7.4375C39.53125 7.269531 39.4375 7.125 39.34375 6.96875C40.277344 6.804688 41 5.976563 41 5L41 2C41 0.90625 40.09375 0 39 0 Z M 29 2L39 2L39 5L29 5 Z M 31.09375 7L36.84375 7C36.871094 7.015625 36.953125 7.066406 37.0625 7.1875C37.28125 7.429688 37.566406 7.882813 37.875 8.4375C38.492188 9.546875 39.164063 11.105469 39.78125 12.8125C41.015625 16.226563 42 20.269531 42 21.8125L42 24L40 24C39.988281 23.988281 39.980469 23.980469 39.96875 23.96875L26.96875 16.625C27.582031 14.402344 28.414063 11.984375 29.25 10.09375C29.710938 9.050781 30.203125 8.160156 30.59375 7.59375C30.789063 7.3125 30.957031 7.121094 31.0625 7.03125C31.089844 7.007813 31.082031 7.007813 31.09375 7 Z M 14.625 15.78125C16.601563 15.78125 18.398438 16.46875 19.8125 17.625L13.0625 24L6.40625 24C6.660156 19.066406 10.222656 15.78125 14.625 15.78125 Z M 23.4375 16.9375L35.9375 24L15.96875 24 Z M 2.84375 26L47.15625 26C47.628906 26 48 26.371094 48 26.84375L48 30.15625C48 30.628906 47.628906 31 47.15625 31L4.0625 31C4.042969 31 4.019531 31 4 31L2.84375 31C2.371094 31 2 30.628906 2 30.15625L2 26.84375C2 26.371094 2.371094 26 2.84375 26 Z M 5 33L12 33L12 45C12 45.550781 12.449219 46 13 46L16 46C16.550781 46 17 45.550781 17 45L17 33L19 33L19 45C19 45.550781 19.449219 46 20 46L23 46C23.550781 46 24 45.550781 24 45L24 33L26 33L26 45C26 45.550781 26.449219 46 27 46L30 46C30.550781 46 31 45.550781 31 45L31 33L33 33L33 45C33 45.550781 33.449219 46 34 46L37 46C37.550781 46 38 45.550781 38 45L38 33L45 33L45 35.875C44.976563 35.957031 44.953125 36.09375 44.90625 36.25C44.816406 36.5625 44.660156 37.003906 44.5 37.53125C44.183594 38.582031 43.765625 39.960938 43.34375 41.34375C42.511719 44.0625 41.714844 46.691406 41.6875 46.78125C41.6875 46.78125 41.65625 46.875 41.65625 46.875C41.464844 47.316406 41.285156 47.660156 41.15625 47.8125C41.015625 47.980469 41.023438 48 40.78125 48L9.21875 48C9.144531 48 9.152344 48 8.96875 47.78125C8.800781 47.582031 8.558594 47.191406 8.3125 46.75C8.277344 46.632813 7.484375 44.050781 6.65625 41.34375C6.234375 39.960938 5.816406 38.582031 5.5 37.53125C5.339844 37.003906 5.183594 36.5625 5.09375 36.25C5.046875 36.09375 5.023438 35.957031 5 35.875 Z M 14 33L15 33L15 44L14 44 Z M 21 33L22 33L22 44L21 44 Z M 28 33L29 33L29 44L28 44 Z M 35 33L36 33L36 44L35 44Z"/>
        </symbol>
        <symbol id="steps" viewBox="0 0 512 512">
                <g transform="translate(1 1)">
            <g>
                <g>
                    <path d="M229.48,263.533c-5.12,0-8.533,3.413-8.533,8.533c0,5.12,3.413,8.533,8.533,8.533c5.12,0,8.533-3.413,8.533-8.533
                        C238.013,266.947,234.6,263.533,229.48,263.533z"/>
                    <path d="M246.547,237.933c0,5.12,3.413,8.533,8.533,8.533c5.12,0,8.533-3.413,8.533-8.533s-3.413-8.533-8.533-8.533
                        C249.96,229.4,246.547,232.813,246.547,237.933z"/>
                    <path d="M229.48,212.333c-5.12,0-8.533,3.413-8.533,8.533s3.413,8.533,8.533,8.533c5.12,0,8.533-3.413,8.533-8.533
                        S234.6,212.333,229.48,212.333z"/>
                    <path d="M255.08,289.133c-5.12,0-8.533,3.413-8.533,8.533s3.413,8.533,8.533,8.533c5.12,0,8.533-3.413,8.533-8.533
                        S260.2,289.133,255.08,289.133z"/>
                    <path d="M491.453,223.427c-3.413-3.413-8.533-3.413-11.947,0L362.6,340.333H246.547c0-5.12-3.413-8.533-8.533-8.533
                        s-8.533,3.413-8.533,8.533h-128c-5.12,0-8.533,3.413-8.533,8.533v51.2c0,39.609,20.574,74.248,51.654,93.867h-33.734
                        L69.053,485.4c-5.12-0.853-9.387,2.56-10.24,6.827c-0.853,5.12,2.56,9.387,6.827,10.24L108.307,511c0.853,0,0.853,0,1.707,0
                        h93.867h136.533h93.867c0.853,0,0.853,0,1.707,0l42.667-8.533c5.12-0.853,7.68-5.973,6.827-10.24
                        c-0.853-5.12-5.973-7.68-10.24-6.827l-41.813,8.533h-33.734c31.08-19.619,51.654-54.257,51.654-93.867v-51.2
                        c0-5.12-3.413-8.533-8.533-8.533h-56.32l104.96-104.96C494.867,231.96,494.867,226.84,491.453,223.427z M434.28,400.067
                        c0,52.053-41.813,93.867-93.867,93.867H203.88c-52.053,0-93.867-41.813-93.867-93.867V357.4H434.28V400.067z"/>
                    <path d="M169.747,243.053c6.827,0,13.653-2.56,18.773-8.533l64-64c8.533-8.533,9.387-22.187,2.56-32.427l-88.747-128
                        C162.067,3.267,155.24-0.147,147.56-1c-7.68,0-15.36,2.56-20.48,7.68L23.827,110.787c-5.973,5.12-8.533,12.8-7.68,20.48
                        c0.853,7.68,5.12,14.507,11.093,18.773l128,88.747C159.507,241.347,164.627,243.053,169.747,243.053z M33.213,129.56
                        c0-1.707,0-5.12,2.56-6.827L139.88,18.627c2.56-2.56,5.12-2.56,6.827-2.56c0.853,0,4.267,0.853,5.973,3.413l87.893,128.853
                        c2.56,3.413,1.707,8.533-0.853,11.093l-64,64c-3.413,2.56-7.68,3.413-11.093,0.853l-128-88.747
                        C34.067,133.827,33.213,131.267,33.213,129.56z"/>
                    <path d="M184.253,131.267c6.827-5.973,10.24-14.507,10.24-23.893c0-8.533-3.413-17.067-10.24-23.893
                        c-11.093-11.947-29.013-13.653-41.813-5.12c-13.653-7.68-31.573-5.973-42.667,5.12c-11.947,11.093-13.653,29.013-5.12,41.813
                        c-7.68,12.8-5.973,30.72,5.12,41.813c6.827,6.827,15.36,10.24,23.893,10.24s17.92-3.413,23.893-9.387
                        c7.68-7.68,11.093-17.067,10.24-26.453C167.187,141.507,177.427,138.093,184.253,131.267z M135.613,118.467
                        c-1.707,1.707-2.56,4.267-2.56,5.973s0.853,4.267,2.56,5.973c6.827,6.827,6.827,17.067,0,23.893s-17.067,6.827-23.893,0
                        s-6.827-17.067,0-23.893c3.413-3.413,3.413-8.533,0-11.947c-6.827-6.827-6.827-17.067,0-23.893
                        c3.413-3.413,7.68-5.12,11.947-5.12s8.533,1.707,11.947,5.12s8.533,3.413,11.947,0c6.827-6.827,17.067-6.827,23.893,0
                        c3.413,3.413,5.12,7.68,5.12,11.947s-1.707,8.533-5.12,11.947c-6.827,6.827-17.067,6.827-23.893,0
                        C144.147,115.053,139.027,115.053,135.613,118.467z"/>
                </g>
            </g>
        </g>
        </symbol>
    </defs>
</svg>